<svg xmlns="http://www.w3.org/2000/svg" width="720" height="30" viewBox="0 0 720 30" role="img" aria-label="Language breakdown"><clipPath id="r"><rect x="0" y="0" width="720" height="14" rx="3"/></clipPath><rect x="0" y="0" width="720" height="14" rx="3" fill="#2d333b"/><g clip-path="url(#r)"><rect x="0.00" y="0" width="484.05" height="14" fill="#f1e05a"><title>JavaScript 67.2%</title></rect><rect x="484.05" y="0" width="72.66" height="14" fill="#e34c26"><title>HTML 10.1%</title></rect><rect x="556.70" y="0" width="63.76" height="14" fill="#663399"><title>CSS 8.9%</title></rect><rect x="620.46" y="0" width="26.94" height="14" fill="#c6538c"><title>SCSS 3.7%</title></rect><rect x="647.40" y="0" width="25.93" height="14" fill="#AA6746"><title>Solidity 3.6%</title></rect><rect x="673.33" y="0" width="22.53" height="14" fill="#3178c6"><title>TypeScript 3.1%</title></rect><rect x="695.86" y="0" width="24.14" height="14" fill="#6e7681"><title>Other 3.4%</title></rect></g><circle cx="5" cy="27" r="4" fill="#f1e05a"/><text x="13" y="30" fill="#c9d1d9" font-family="-apple-system,BlinkMacSystemFont,Segoe UI,Helvetica,Arial,sans-serif" font-size="10">JavaScript 67.2%</text><circle cx="126" cy="27" r="4" fill="#e34c26"/><text x="134" y="30" fill="#c9d1d9" font-family="-apple-system,BlinkMacSystemFont,Segoe UI,Helvetica,Arial,sans-serif" font-size="10">HTML 10.1%</text><circle cx="205" cy="27" r="4" fill="#663399"/><text x="213" y="30" fill="#c9d1d9" font-family="-apple-system,BlinkMacSystemFont,Segoe UI,Helvetica,Arial,sans-serif" font-size="10">CSS 8.9%</text><circle cx="277" cy="27" r="4" fill="#c6538c"/><text x="285" y="30" fill="#c9d1d9" font-family="-apple-system,BlinkMacSystemFont,Segoe UI,Helvetica,Arial,sans-serif" font-size="10">SCSS 3.7%</text><circle cx="356" cy="27" r="4" fill="#AA6746"/><text x="364" y="30" fill="#c9d1d9" font-family="-apple-system,BlinkMacSystemFont,Segoe UI,Helvetica,Arial,sans-serif" font-size="10">Solidity 3.6%</text><circle cx="463" cy="27" r="4" fill="#3178c6"/><text x="471" y="30" fill="#c9d1d9" font-family="-apple-system,BlinkMacSystemFont,Segoe UI,Helvetica,Arial,sans-serif" font-size="10">TypeScript 3.1%</text><circle cx="584" cy="27" r="4" fill="#6e7681"/><text x="592" y="30" fill="#c9d1d9" font-family="-apple-system,BlinkMacSystemFont,Segoe UI,Helvetica,Arial,sans-serif" font-size="10">Other 3.4%</text></svg>