<svg xmlns="http://www.w3.org/2000/svg" width="720" height="30" viewBox="0 0 720 30" role="img" aria-label="Language breakdown"><clipPath id="r"><rect x="0" y="0" width="720" height="14" rx="3"/></clipPath><rect x="0" y="0" width="720" height="14" rx="3" fill="#2d333b"/><g clip-path="url(#r)"><rect x="0.00" y="0" width="518.04" height="14" fill="#f1e05a"><title>JavaScript 72.0%</title></rect><rect x="518.04" y="0" width="61.27" height="14" fill="#e34c26"><title>HTML 8.5%</title></rect><rect x="579.31" y="0" width="53.87" height="14" fill="#663399"><title>CSS 7.5%</title></rect><rect x="633.18" y="0" width="23.22" height="14" fill="#AA6746"><title>Solidity 3.2%</title></rect><rect x="656.40" y="0" width="22.76" height="14" fill="#c6538c"><title>SCSS 3.2%</title></rect><rect x="679.16" y="0" width="20.11" height="14" fill="#3178c6"><title>TypeScript 2.8%</title></rect><rect x="699.27" y="0" width="20.73" height="14" fill="#6e7681"><title>Other 2.9%</title></rect></g><circle cx="5" cy="27" r="4" fill="#f1e05a"/><text x="13" y="30" fill="#c9d1d9" font-family="-apple-system,BlinkMacSystemFont,Segoe UI,Helvetica,Arial,sans-serif" font-size="10">JavaScript 72.0%</text><circle cx="126" cy="27" r="4" fill="#e34c26"/><text x="134" y="30" fill="#c9d1d9" font-family="-apple-system,BlinkMacSystemFont,Segoe UI,Helvetica,Arial,sans-serif" font-size="10">HTML 8.5%</text><circle cx="205" cy="27" r="4" fill="#663399"/><text x="213" y="30" fill="#c9d1d9" font-family="-apple-system,BlinkMacSystemFont,Segoe UI,Helvetica,Arial,sans-serif" font-size="10">CSS 7.5%</text><circle cx="277" cy="27" r="4" fill="#AA6746"/><text x="285" y="30" fill="#c9d1d9" font-family="-apple-system,BlinkMacSystemFont,Segoe UI,Helvetica,Arial,sans-serif" font-size="10">Solidity 3.2%</text><circle cx="384" cy="27" r="4" fill="#c6538c"/><text x="392" y="30" fill="#c9d1d9" font-family="-apple-system,BlinkMacSystemFont,Segoe UI,Helvetica,Arial,sans-serif" font-size="10">SCSS 3.2%</text><circle cx="463" cy="27" r="4" fill="#3178c6"/><text x="471" y="30" fill="#c9d1d9" font-family="-apple-system,BlinkMacSystemFont,Segoe UI,Helvetica,Arial,sans-serif" font-size="10">TypeScript 2.8%</text><circle cx="584" cy="27" r="4" fill="#6e7681"/><text x="592" y="30" fill="#c9d1d9" font-family="-apple-system,BlinkMacSystemFont,Segoe UI,Helvetica,Arial,sans-serif" font-size="10">Other 2.9%</text></svg>