<svg xmlns="http://www.w3.org/2000/svg" width="720" height="30" viewBox="0 0 720 30" role="img" aria-label="Language breakdown"><clipPath id="r"><rect x="0" y="0" width="720" height="14" rx="3"/></clipPath><rect x="0" y="0" width="720" height="14" rx="3" fill="#2d333b"/><g clip-path="url(#r)"><rect x="0.00" y="0" width="476.60" height="14" fill="#f1e05a"><title>JavaScript 66.2%</title></rect><rect x="476.60" y="0" width="76.14" height="14" fill="#e34c26"><title>HTML 10.6%</title></rect><rect x="552.74" y="0" width="68.65" height="14" fill="#663399"><title>CSS 9.5%</title></rect><rect x="621.39" y="0" width="29.06" height="14" fill="#c6538c"><title>SCSS 4.0%</title></rect><rect x="650.45" y="0" width="25.35" height="14" fill="#AA6746"><title>Solidity 3.5%</title></rect><rect x="675.80" y="0" width="18.77" height="14" fill="#3178c6"><title>TypeScript 2.6%</title></rect><rect x="694.57" y="0" width="25.43" height="14" fill="#6e7681"><title>Other 3.5%</title></rect></g><circle cx="5" cy="27" r="4" fill="#f1e05a"/><text x="13" y="30" fill="#c9d1d9" font-family="-apple-system,BlinkMacSystemFont,Segoe UI,Helvetica,Arial,sans-serif" font-size="10">JavaScript 66.2%</text><circle cx="126" cy="27" r="4" fill="#e34c26"/><text x="134" y="30" fill="#c9d1d9" font-family="-apple-system,BlinkMacSystemFont,Segoe UI,Helvetica,Arial,sans-serif" font-size="10">HTML 10.6%</text><circle cx="205" cy="27" r="4" fill="#663399"/><text x="213" y="30" fill="#c9d1d9" font-family="-apple-system,BlinkMacSystemFont,Segoe UI,Helvetica,Arial,sans-serif" font-size="10">CSS 9.5%</text><circle cx="277" cy="27" r="4" fill="#c6538c"/><text x="285" y="30" fill="#c9d1d9" font-family="-apple-system,BlinkMacSystemFont,Segoe UI,Helvetica,Arial,sans-serif" font-size="10">SCSS 4.0%</text><circle cx="356" cy="27" r="4" fill="#AA6746"/><text x="364" y="30" fill="#c9d1d9" font-family="-apple-system,BlinkMacSystemFont,Segoe UI,Helvetica,Arial,sans-serif" font-size="10">Solidity 3.5%</text><circle cx="463" cy="27" r="4" fill="#3178c6"/><text x="471" y="30" fill="#c9d1d9" font-family="-apple-system,BlinkMacSystemFont,Segoe UI,Helvetica,Arial,sans-serif" font-size="10">TypeScript 2.6%</text><circle cx="584" cy="27" r="4" fill="#6e7681"/><text x="592" y="30" fill="#c9d1d9" font-family="-apple-system,BlinkMacSystemFont,Segoe UI,Helvetica,Arial,sans-serif" font-size="10">Other 3.5%</text></svg>