<svg xmlns="http://www.w3.org/2000/svg" width="720" height="30" viewBox="0 0 720 30" role="img" aria-label="Language breakdown"><clipPath id="r"><rect x="0" y="0" width="720" height="14" rx="3"/></clipPath><rect x="0" y="0" width="720" height="14" rx="3" fill="#2d333b"/><g clip-path="url(#r)"><rect x="0.00" y="0" width="476.64" height="14" fill="#f1e05a"><title>JavaScript 66.2%</title></rect><rect x="476.64" y="0" width="74.32" height="14" fill="#e34c26"><title>HTML 10.3%</title></rect><rect x="550.96" y="0" width="69.68" height="14" fill="#663399"><title>CSS 9.7%</title></rect><rect x="620.64" y="0" width="29.50" height="14" fill="#c6538c"><title>SCSS 4.1%</title></rect><rect x="650.14" y="0" width="25.70" height="14" fill="#AA6746"><title>Solidity 3.6%</title></rect><rect x="675.84" y="0" width="18.79" height="14" fill="#3178c6"><title>TypeScript 2.6%</title></rect><rect x="694.63" y="0" width="25.37" height="14" fill="#6e7681"><title>Other 3.5%</title></rect></g><circle cx="5" cy="27" r="4" fill="#f1e05a"/><text x="13" y="30" fill="#c9d1d9" font-family="-apple-system,BlinkMacSystemFont,Segoe UI,Helvetica,Arial,sans-serif" font-size="10">JavaScript 66.2%</text><circle cx="126" cy="27" r="4" fill="#e34c26"/><text x="134" y="30" fill="#c9d1d9" font-family="-apple-system,BlinkMacSystemFont,Segoe UI,Helvetica,Arial,sans-serif" font-size="10">HTML 10.3%</text><circle cx="205" cy="27" r="4" fill="#663399"/><text x="213" y="30" fill="#c9d1d9" font-family="-apple-system,BlinkMacSystemFont,Segoe UI,Helvetica,Arial,sans-serif" font-size="10">CSS 9.7%</text><circle cx="277" cy="27" r="4" fill="#c6538c"/><text x="285" y="30" fill="#c9d1d9" font-family="-apple-system,BlinkMacSystemFont,Segoe UI,Helvetica,Arial,sans-serif" font-size="10">SCSS 4.1%</text><circle cx="356" cy="27" r="4" fill="#AA6746"/><text x="364" y="30" fill="#c9d1d9" font-family="-apple-system,BlinkMacSystemFont,Segoe UI,Helvetica,Arial,sans-serif" font-size="10">Solidity 3.6%</text><circle cx="463" cy="27" r="4" fill="#3178c6"/><text x="471" y="30" fill="#c9d1d9" font-family="-apple-system,BlinkMacSystemFont,Segoe UI,Helvetica,Arial,sans-serif" font-size="10">TypeScript 2.6%</text><circle cx="584" cy="27" r="4" fill="#6e7681"/><text x="592" y="30" fill="#c9d1d9" font-family="-apple-system,BlinkMacSystemFont,Segoe UI,Helvetica,Arial,sans-serif" font-size="10">Other 3.5%</text></svg>